<svg width="19" height="18" viewBox="0 0 19 18" fill="none" xmlns="http://www.w3.org/2000/svg">
<path d="M6.17484 14.4936C6.17484 14.568 6.08924 14.6276 5.9813 14.6276C5.85847 14.6387 5.77286 14.5792 5.77286 14.4936C5.77286 14.4191 5.85847 14.3596 5.96641 14.3596C6.07807 14.3484 6.17484 14.408 6.17484 14.4936ZM5.01729 14.3261C4.99124 14.4005 5.06568 14.4861 5.17734 14.5085C5.27411 14.5457 5.38577 14.5085 5.40811 14.434C5.43044 14.3596 5.35972 14.274 5.24806 14.2405C5.15129 14.2144 5.04335 14.2516 5.01729 14.3261ZM6.66243 14.2628C6.55449 14.2889 6.48005 14.3596 6.49122 14.4452C6.50238 14.5196 6.59915 14.568 6.71081 14.542C6.81875 14.5159 6.89319 14.4452 6.88203 14.3707C6.87086 14.3 6.77037 14.2516 6.66243 14.2628ZM9.11152 0C3.94907 0 0 3.91929 0 9.08175C0 13.2095 2.59798 16.7417 6.30884 17.9848C6.78526 18.0704 6.95275 17.7764 6.95275 17.5345C6.95275 17.3037 6.94158 16.0308 6.94158 15.2491C6.94158 15.2491 4.33616 15.8074 3.78902 14.14C3.78902 14.14 3.36471 13.0569 2.7543 12.7777C2.7543 12.7777 1.90196 12.1934 2.81385 12.2045C2.81385 12.2045 3.74064 12.279 4.25056 13.1648C5.06568 14.6015 6.43166 14.1884 6.96391 13.9427C7.04952 13.3472 7.29145 12.934 7.55944 12.6884C5.47882 12.4576 3.3796 12.1561 3.3796 8.57555C3.3796 7.55199 3.66247 7.03835 4.258 6.38328C4.16123 6.14134 3.84485 5.14384 4.35477 3.85602C5.13268 3.61409 6.92297 4.86097 6.92297 4.86097C7.66738 4.65253 8.46761 4.5446 9.2604 4.5446C10.0532 4.5446 10.8534 4.65253 11.5978 4.86097C11.5978 4.86097 13.3881 3.61037 14.166 3.85602C14.676 5.14756 14.3596 6.14134 14.2628 6.38328C14.8583 7.04207 15.2231 7.55571 15.2231 8.57555C15.2231 12.1673 13.0308 12.4539 10.9502 12.6884C11.2926 12.9824 11.5829 13.5407 11.5829 14.4154C11.5829 15.6697 11.5718 17.2218 11.5718 17.527C11.5718 17.769 11.743 18.063 12.2157 17.9774C15.9377 16.7417 18.4613 13.2095 18.4613 9.08175C18.4613 3.91929 14.274 0 9.11152 0ZM3.61781 12.8373C3.56942 12.8745 3.58059 12.9601 3.64386 13.0308C3.70342 13.0904 3.78902 13.1164 3.83741 13.068C3.8858 13.0308 3.87463 12.9452 3.81136 12.8745C3.7518 12.8149 3.6662 12.7889 3.61781 12.8373ZM3.21583 12.5358C3.18978 12.5842 3.227 12.6437 3.30144 12.6809C3.36099 12.7182 3.43543 12.707 3.46149 12.6549C3.48754 12.6065 3.45032 12.547 3.37588 12.5097C3.30144 12.4874 3.24189 12.4986 3.21583 12.5358ZM4.42177 13.8608C4.36222 13.9092 4.38455 14.0209 4.47015 14.0916C4.55576 14.1772 4.6637 14.1884 4.71209 14.1288C4.76047 14.0804 4.73814 13.9688 4.6637 13.898C4.58182 13.8124 4.47015 13.8013 4.42177 13.8608ZM3.99746 13.3137C3.9379 13.3509 3.9379 13.4477 3.99746 13.5333C4.05701 13.6189 4.1575 13.6561 4.20589 13.6189C4.26544 13.5705 4.26544 13.4737 4.20589 13.3881C4.15378 13.3025 4.05701 13.2653 3.99746 13.3137Z" fill="white"/>
</svg>
