<svg width="19" height="18" viewBox="0 0 19 18" fill="none" xmlns="http://www.w3.org/2000/svg">
<path d="M4.49013 18H0.758266V5.98232H4.49013V18ZM2.62219 4.343C1.42886 4.343 0.460938 3.35458 0.460938 2.16125C0.460938 1.58805 0.68864 1.03833 1.09395 0.633017C1.49927 0.227703 2.04899 0 2.62219 0C3.19539 0 3.74511 0.227703 4.15043 0.633017C4.55574 1.03833 4.78344 1.58805 4.78344 2.16125C4.78344 3.35458 3.81512 4.343 2.62219 4.343ZM18.4573 18H14.7335V12.1499C14.7335 10.7556 14.7054 8.96766 12.7932 8.96766C10.853 8.96766 10.5556 10.4824 10.5556 12.0494V18H6.82778V5.98232H10.407V7.62164H10.4592C10.9574 6.67743 12.1745 5.68097 13.9902 5.68097C17.767 5.68097 18.4613 8.16808 18.4613 11.3985V18H18.4573Z" fill="white"/>
</svg>
