<svg width="284" height="308" viewBox="0 0 284 308" fill="none" xmlns="http://www.w3.org/2000/svg">
<path fill-rule="evenodd" clip-rule="evenodd" d="M49.9086 20.727C39.8356 20.727 31.7266 28.8361 31.7266 38.909V202.549C31.7266 212.622 39.8357 220.731 49.9086 220.731H86.2726V75.281H159V20.736L49.9086 20.727ZM177.179 20.727V220.727H213.543C223.616 220.727 231.725 212.618 231.725 202.545V38.905C231.725 28.832 223.615 20.723 213.543 20.723L177.179 20.727ZM104.452 93.454V220.724H158.997V93.454H104.452Z" fill="#35BFA4"/>
<path d="M145.49 238.67C144.497 238.67 143.65 239.021 142.949 239.721C142.248 240.422 141.898 241.269 141.898 242.262C141.898 243.255 142.248 244.102 142.949 244.803C143.65 245.504 144.497 245.854 145.49 245.854C146.483 245.854 147.329 245.504 148.03 244.803C148.731 244.102 149.082 243.255 149.082 242.262C149.082 241.269 148.731 240.422 148.03 239.721C147.33 239.021 146.482 238.67 145.49 238.67ZM145.49 248.073C144.653 248.073 143.933 248.375 143.329 248.979C142.745 249.563 142.453 250.283 142.453 251.139V280.633C142.453 281.743 142.239 282.784 141.811 283.757C141.382 284.731 140.798 285.578 140.058 286.298C139.338 287.038 138.491 287.612 137.518 288.021C136.544 288.45 135.503 288.663 134.393 288.663C133.517 288.663 132.787 288.946 132.203 289.511C131.638 290.095 131.356 290.824 131.356 291.7C131.356 292.576 131.638 293.307 132.203 293.891C132.787 294.475 133.517 294.767 134.393 294.767C136.32 294.767 138.141 294.387 139.854 293.628C141.567 292.888 143.066 291.876 144.351 290.591C145.636 289.306 146.648 287.807 147.388 286.094C148.147 284.38 148.527 282.561 148.527 280.633V251.139C148.527 250.283 148.225 249.563 147.621 248.979C147.037 248.375 146.327 248.073 145.49 248.073ZM16.5897 248.407C15.7526 248.407 15.0326 248.709 14.4291 249.312C13.845 249.896 13.5527 250.607 13.5527 251.444V278.047C13.5527 278.903 13.845 279.633 14.4291 280.237C15.0326 280.821 15.7628 281.113 16.6194 281.113C17.4565 281.113 18.1669 280.821 18.751 280.237C19.3545 279.633 19.6564 278.903 19.6564 278.047V261.431C19.6564 260.477 19.8313 259.581 20.1817 258.744C20.5516 257.907 21.0482 257.178 21.6711 256.555C22.3135 255.912 23.0533 255.416 23.8904 255.065C24.7275 254.695 25.623 254.51 26.577 254.51C27.5309 254.51 28.4264 254.695 29.2636 255.065C30.1007 255.435 30.8309 255.932 31.4539 256.555C32.0769 257.177 32.5728 257.907 32.9427 258.744C33.3126 259.581 33.4977 260.477 33.4977 261.431V278.047C33.4977 278.903 33.79 279.633 34.3741 280.237C34.9775 280.821 35.7072 281.113 36.5638 281.113C37.4009 281.113 38.1119 280.821 38.696 280.237C39.2994 279.633 39.6008 278.903 39.6008 278.047V261.431C39.6008 260.477 39.7763 259.581 40.1267 258.744C40.4966 257.907 40.9932 257.178 41.6161 256.555C42.2585 255.932 42.9983 255.435 43.8354 255.065C44.6725 254.695 45.568 254.51 46.522 254.51C47.4954 254.51 48.4005 254.695 49.2376 255.065C50.0942 255.435 50.8339 255.941 51.4569 256.584C52.0799 257.207 52.5662 257.937 52.9167 258.774C53.2866 259.611 53.4717 260.496 53.4717 261.431V278.047C53.4717 278.903 53.764 279.633 54.3481 280.237C54.9321 280.821 55.6521 281.113 56.5087 281.113C57.3457 281.113 58.0562 280.821 58.6403 280.237C59.2437 279.633 59.5456 278.903 59.5457 278.047V261.431C59.5456 259.659 59.1952 257.985 58.4944 256.408C57.813 254.812 56.8785 253.43 55.691 252.262C54.5229 251.074 53.141 250.14 51.5447 249.458C49.9678 248.758 48.2935 248.407 46.522 248.407C42.5895 248.407 39.2697 249.955 36.5637 253.05C35.2788 251.493 33.7801 250.334 32.0669 249.575C30.3537 248.796 28.5237 248.407 26.577 248.407C23.9294 248.407 21.5639 249.098 19.4808 250.48C19.2861 249.857 18.9261 249.361 18.4005 248.991C17.8748 248.602 17.2711 248.407 16.5897 248.407ZM81.5327 248.407C77.0161 248.407 73.1615 250.003 69.9687 253.196C66.776 256.389 65.1796 260.243 65.1796 264.76C65.1796 269.276 66.776 273.131 69.9687 276.324C73.1614 279.517 77.0161 281.113 81.5327 281.113C83.4795 281.113 85.3094 280.801 87.0226 280.179C88.7357 279.556 90.3225 278.66 91.7826 277.492V278.076C91.7825 278.913 92.0743 279.633 92.6583 280.237C93.2618 280.821 93.992 281.113 94.8486 281.113C95.6857 281.113 96.3961 280.821 96.9802 280.237C97.5837 279.633 97.8856 278.913 97.8856 278.076V264.76C97.8856 260.243 96.2892 256.389 93.0965 253.196C89.8648 250.003 86.0104 248.407 81.5327 248.407ZM106.586 248.407C105.729 248.407 104.999 248.709 104.395 249.312C103.811 249.916 103.52 250.636 103.52 251.473V278.047C103.52 278.903 103.811 279.633 104.395 280.237C104.999 280.821 105.729 281.113 106.586 281.113C107.423 281.113 108.133 280.821 108.717 280.237C109.321 279.633 109.623 278.903 109.623 278.047V263.65C109.623 262.404 109.856 261.226 110.324 260.117C110.81 259.007 111.472 258.034 112.309 257.196C113.146 256.359 114.11 255.707 115.2 255.24C116.31 254.753 117.497 254.51 118.763 254.51C120.009 254.51 121.186 254.753 122.296 255.24C123.406 255.726 124.369 256.388 125.187 257.225C126.024 258.043 126.686 259.007 127.173 260.116C127.659 261.226 127.903 262.404 127.903 263.65V278.047C127.903 278.903 128.195 279.633 128.779 280.236C129.382 280.82 130.113 281.113 130.969 281.113C131.806 281.113 132.517 280.82 133.101 280.236C133.704 279.633 134.006 278.903 134.006 278.047V263.65C134.006 261.547 133.597 259.572 132.779 257.722C131.962 255.853 130.852 254.237 129.451 252.874C128.049 251.492 126.423 250.402 124.574 249.604C122.744 248.806 120.807 248.407 118.763 248.407C115.258 248.407 112.212 249.41 109.623 251.415C109.623 250.616 109.321 249.916 108.717 249.312C108.133 248.709 107.423 248.407 106.586 248.407ZM170.519 248.407C166.002 248.407 162.147 250.003 158.955 253.196C155.762 256.389 154.166 260.243 154.166 264.76C154.166 269.276 155.762 273.131 158.955 276.324C162.147 279.517 166.002 281.113 170.519 281.113C172.465 281.113 174.295 280.801 176.009 280.179C177.722 279.556 179.308 278.66 180.769 277.492V278.076C180.769 278.913 181.061 279.633 181.645 280.237C182.248 280.821 182.978 281.113 183.835 281.113C184.672 281.113 185.383 280.821 185.967 280.237C186.57 279.633 186.872 278.913 186.872 278.076V264.76C186.872 260.243 185.275 256.389 182.083 253.196C178.851 250.003 174.996 248.407 170.519 248.407ZM195.573 248.407C194.716 248.407 193.986 248.709 193.382 249.312C192.798 249.896 192.506 250.607 192.506 251.444V278.076C192.506 278.913 192.798 279.633 193.382 280.236C193.986 280.82 194.716 281.113 195.573 281.113C196.41 281.113 197.12 280.82 197.704 280.236C198.308 279.633 198.61 278.913 198.61 278.076V264.76C198.61 263.339 198.872 262.005 199.398 260.759C199.943 259.513 200.673 258.433 201.588 257.518C202.522 256.583 203.613 255.853 204.859 255.327C206.104 254.782 207.438 254.51 208.859 254.51C210.3 254.51 211.634 254.753 212.86 255.24C213.347 255.454 213.775 255.561 214.145 255.561C214.573 255.561 214.972 255.483 215.342 255.327C215.712 255.172 216.033 254.958 216.306 254.685C216.578 254.393 216.793 254.062 216.948 253.692C217.124 253.322 217.211 252.923 217.211 252.495C217.211 251.658 216.939 250.976 216.393 250.451C215.848 249.925 215.157 249.516 214.32 249.224C213.502 248.913 212.597 248.699 211.604 248.582C210.631 248.465 209.716 248.407 208.859 248.407C206.912 248.407 205.082 248.718 203.369 249.341C201.656 249.964 200.07 250.86 198.61 252.028V251.444C198.61 250.607 198.308 249.896 197.704 249.312C197.12 248.709 196.41 248.407 195.573 248.407ZM233.564 248.407C229.047 248.407 225.192 250.003 222 253.196C218.807 256.389 217.211 260.243 217.211 264.76C217.211 269.276 218.807 273.131 222 276.324C225.192 279.517 229.047 281.113 233.564 281.113C238.041 281.113 241.896 279.517 245.128 276.324C248.32 273.17 249.917 269.315 249.917 264.76C249.897 262.502 249.489 260.409 248.691 258.481C247.912 256.554 246.724 254.792 245.128 253.196C241.896 250.003 238.041 248.407 233.564 248.407ZM81.5337 254.51C82.9548 254.51 84.2882 254.782 85.5342 255.327C86.7801 255.873 87.8607 256.612 88.7757 257.547C89.7101 258.481 90.4403 259.571 90.966 260.817C91.511 262.044 91.7836 263.358 91.7836 264.76C91.7836 266.161 91.511 267.485 90.966 268.731C90.4403 269.958 89.7101 271.038 88.7757 271.972C87.8607 272.907 86.7801 273.646 85.5342 274.191C84.2882 274.736 82.9548 275.01 81.5337 275.01C80.0931 275.01 78.7495 274.736 77.5035 274.191C76.2575 273.646 75.1775 272.917 74.2626 272.002C73.3476 271.067 72.6174 269.977 72.0723 268.731C71.5466 267.485 71.2837 266.161 71.2837 264.76C71.2837 263.358 71.5466 262.034 72.0723 260.788C72.6174 259.542 73.3476 258.462 74.2626 257.547C75.1776 256.612 76.2576 255.872 77.5035 255.327C78.7494 254.782 80.093 254.51 81.5337 254.51ZM170.52 254.51C171.941 254.51 173.275 254.782 174.521 255.327C175.767 255.873 176.847 256.612 177.762 257.547C178.696 258.481 179.426 259.571 179.952 260.817C180.497 262.044 180.77 263.358 180.77 264.76C180.77 266.161 180.497 267.485 179.952 268.731C179.426 269.958 178.696 271.038 177.762 271.972C176.847 272.907 175.767 273.646 174.521 274.191C173.275 274.736 171.941 275.01 170.52 275.01C169.079 275.01 167.736 274.736 166.49 274.191C165.244 273.646 164.163 272.917 163.249 272.002C162.334 271.067 161.603 269.977 161.058 268.731C160.533 267.485 160.27 266.161 160.27 264.76C160.27 263.358 160.533 262.034 161.058 260.788C161.603 259.542 162.334 258.462 163.249 257.547C164.164 256.612 165.244 255.872 166.49 255.327C167.736 254.782 169.079 254.51 170.52 254.51ZM233.565 254.51C234.986 254.51 236.32 254.782 237.566 255.327C238.812 255.873 239.892 256.612 240.807 257.547C241.741 258.481 242.471 259.571 242.997 260.817C243.542 262.044 243.815 263.358 243.815 264.76C243.815 266.161 243.542 267.485 242.997 268.731C242.471 269.958 241.741 271.038 240.807 271.972C239.892 272.907 238.812 273.646 237.566 274.191C236.32 274.736 234.986 275.01 233.565 275.01C232.124 275.01 230.781 274.736 229.535 274.191C228.289 273.646 227.209 272.917 226.294 272.002C225.379 271.067 224.648 269.977 224.103 268.731C223.578 267.485 223.315 266.161 223.315 264.76C223.315 263.358 223.578 262.034 224.103 260.788C224.648 259.542 225.379 258.462 226.294 257.547C227.209 256.612 228.289 255.872 229.535 255.327C230.781 254.782 232.124 254.51 233.565 254.51Z" fill="#333333"/>
<path d="M264.009 232.8C266.048 232.8 267.924 233.31 269.636 234.329C271.367 235.33 272.733 236.696 273.733 238.427C274.753 240.139 275.263 242.015 275.263 244.054C275.263 246.131 274.753 248.036 273.733 249.767C272.714 251.498 271.338 252.864 269.607 253.865C267.895 254.846 266.029 255.336 264.009 255.336C261.951 255.336 260.056 254.846 258.325 253.865C256.612 252.864 255.247 251.508 254.227 249.796C253.227 248.065 252.727 246.151 252.727 244.054C252.727 242.015 253.227 240.139 254.227 238.427C255.227 236.696 256.584 235.33 258.296 234.329C260.027 233.31 261.931 232.8 264.009 232.8ZM263.951 252.97C265.567 252.97 267.058 252.566 268.424 251.758C269.809 250.95 270.896 249.863 271.685 248.497C272.493 247.132 272.897 245.641 272.897 244.025C272.897 242.409 272.493 240.918 271.685 239.552C270.877 238.186 269.79 237.1 268.424 236.292C267.058 235.484 265.567 235.08 263.951 235.08C262.335 235.08 260.845 235.484 259.479 236.292C258.113 237.099 257.026 238.186 256.218 239.552C255.41 240.918 255.006 242.409 255.006 244.025C255.006 245.641 255.401 247.132 256.189 248.497C256.997 249.863 258.084 250.95 259.45 251.758C260.816 252.566 262.316 252.97 263.951 252.97ZM268.684 248.844C268.838 249.113 268.915 249.363 268.915 249.594C268.915 249.863 268.818 250.085 268.626 250.258C268.434 250.431 268.174 250.517 267.847 250.517C267.616 250.517 267.404 250.469 267.212 250.373C267.02 250.277 266.875 250.152 266.779 249.998L264.125 245.525H262.047V249.421C262.047 249.748 261.941 250.017 261.73 250.229C261.537 250.421 261.268 250.517 260.922 250.517C260.575 250.517 260.296 250.421 260.085 250.229C259.873 250.017 259.767 249.748 259.767 249.421V238.11C259.767 237.783 259.883 237.523 260.114 237.331C260.344 237.119 260.643 237.013 261.008 237.013H263.865C265.25 237.013 266.385 237.408 267.27 238.196C268.174 238.985 268.626 239.995 268.626 241.226C268.626 242.034 268.424 242.765 268.02 243.419C267.616 244.054 267.068 244.564 266.375 244.949L268.684 248.844ZM262.047 243.506H264.038C264.73 243.506 265.279 243.304 265.683 242.9C266.106 242.476 266.317 241.919 266.317 241.226C266.317 240.533 266.106 239.995 265.683 239.61C265.279 239.225 264.73 239.033 264.038 239.033H262.047V243.506Z" fill="#333333"/>
</svg>
