<svg width="53" height="53" viewBox="0 0 53 53" fill="none" xmlns="http://www.w3.org/2000/svg">
<path d="M1.09755 28.8998C-0.36585 27.4363 -0.36585 25.0637 1.09755 23.6002L23.6002 1.09755C25.0637 -0.36585 27.4363 -0.36585 28.8998 1.09755L51.4024 23.6002C52.8658 25.0637 52.8658 27.4363 51.4024 28.8998L28.8998 51.4024C27.4363 52.8658 25.0637 52.8658 23.6002 51.4024L1.09755 28.8998Z" fill="#EE513B"/>
<path d="M19.0292 5.74035L16.7505 8.01911L22.6359 13.9046C22.3978 14.4154 22.2649 14.985 22.2649 15.5857C22.2649 17.2912 23.3364 18.7464 24.843 19.3147V33.7121C23.3364 34.2804 22.2649 35.7356 22.2649 37.4411C22.2649 39.6416 24.0487 41.4255 26.2492 41.4255C28.4497 41.4255 30.2336 39.6416 30.2336 37.4411C30.2336 35.895 29.3529 34.5544 28.0657 33.894V19.3344L33.6917 24.9604C33.4652 25.4608 33.3392 26.0164 33.3392 26.6014C33.3392 28.8019 35.123 30.5858 37.3235 30.5858C39.524 30.5858 41.3079 28.8019 41.3079 26.6014C41.3079 24.4009 39.524 22.617 37.3235 22.617C36.8959 22.617 36.4841 22.6843 36.0979 22.809L30.0557 16.7668C30.1714 16.3937 30.2336 15.9969 30.2336 15.5857C30.2336 13.3852 28.4497 11.6013 26.2492 11.6013C25.8381 11.6013 25.4415 11.6636 25.0682 11.7793L19.0292 5.74035Z" fill="white"/>
</svg>
