<svg width="54" height="60" viewBox="0 0 54 60" fill="none" xmlns="http://www.w3.org/2000/svg">
<path fill-rule="evenodd" clip-rule="evenodd" d="M31.7867 6.86738L44.1088 13.9818C44.4557 13.6142 44.861 13.2897 45.3208 13.0227C47.8763 11.5536 51.1358 12.4259 52.6202 14.9814C54.0893 17.537 53.217 20.7965 50.6615 22.2809C50.2052 22.5432 49.726 22.7308 49.2383 22.8476V37.0819C49.7207 37.1989 50.1947 37.3854 50.6462 37.6449C53.217 39.1293 54.0893 42.3887 52.6049 44.9443C51.1358 47.4999 47.861 48.3721 45.3055 46.9031C44.7967 46.6106 44.3546 46.2465 43.9845 45.8309L31.7375 52.9018C31.9126 53.4308 32.0073 53.9967 32.0073 54.5851C32.0073 57.5232 29.6201 59.9258 26.6667 59.9258C23.7132 59.9258 21.326 57.5385 21.326 54.5851C21.326 54.0601 21.4014 53.553 21.542 53.074L9.22323 45.9616C8.87996 46.3219 8.48029 46.6403 8.02786 46.9031C5.45699 48.3721 2.19749 47.4999 0.728423 44.9443C-0.740645 42.3887 0.131614 39.1293 2.68718 37.6449C3.13903 37.3851 3.61288 37.1986 4.09504 37.0816V22.8476C3.60731 22.7308 3.12813 22.5432 2.67188 22.2809C0.116311 20.8118 -0.755948 17.537 0.713121 14.9814C2.18219 12.4259 5.45699 11.5536 8.01256 13.0227C8.46982 13.2883 8.87319 13.6107 9.2189 13.9758L21.5443 6.85947C21.4022 6.37822 21.326 5.86849 21.326 5.34068C21.326 2.38724 23.7132 0 26.6667 0C29.6201 0 32.0073 2.38724 32.0073 5.34068C32.0073 5.87138 31.9303 6.38381 31.7867 6.86738ZM30.5028 9.05935L42.8543 16.1907C42.4725 17.5316 42.6126 19.0185 43.362 20.3221C44.1139 21.63 45.3387 22.497 46.698 22.8349V37.087C46.6288 37.1041 46.5598 37.1224 46.4913 37.1422L30.3594 9.2018C30.4081 9.15522 30.4559 9.10773 30.5028 9.05935ZM22.9773 9.20502L6.84569 37.1449C6.77595 37.1247 6.7058 37.1058 6.6353 37.0884V22.8349C7.99463 22.497 9.21946 21.63 9.97131 20.3221C10.7222 19.0159 10.8614 17.5257 10.4768 16.1827L22.8247 9.0534C22.8746 9.10496 22.9254 9.15551 22.9773 9.20502ZM28.1589 10.4708L44.2868 38.4044C43.9259 38.7485 43.6078 39.1495 43.3467 39.6036C43.0872 40.0551 42.9007 40.529 42.7837 41.0115H10.5499C10.4329 40.5293 10.2464 40.0555 9.98662 39.6036C9.72451 39.1524 9.40707 38.7536 9.04792 38.411L25.1789 10.4721C25.651 10.6084 26.1502 10.6814 26.6667 10.6814C27.1848 10.6814 27.6855 10.6079 28.1589 10.4708ZM30.6163 50.9871L42.8875 43.9021C42.8507 43.7864 42.8178 43.6696 42.7889 43.5518H10.5431C10.526 43.621 10.5075 43.6899 10.4877 43.7584L22.8191 50.8782C23.7901 49.8705 25.1541 49.2444 26.6667 49.2444C28.233 49.2444 29.6401 49.9158 30.6163 50.9871Z" fill="#E535AB"/>
</svg>
