<svg width="59" height="60" viewBox="0 0 59 60" fill="none" xmlns="http://www.w3.org/2000/svg">
<path d="M58.149 13.5499C58.1706 13.6298 58.1818 13.7121 58.1818 13.7948V26.6512C58.1818 26.9871 58.0021 27.2973 57.7108 27.4644L46.9202 33.677V45.9908C46.9202 46.326 46.7421 46.6353 46.4515 46.804L23.927 59.7706C23.8755 59.7999 23.8192 59.8186 23.763 59.8385C23.7419 59.8455 23.722 59.8584 23.6997 59.8643C23.5423 59.9058 23.3768 59.9058 23.2193 59.8643C23.1935 59.8573 23.1701 59.8432 23.1455 59.8338C23.0939 59.8151 23.04 59.7987 22.9908 59.7706L0.471041 46.804C0.179857 46.6368 0 46.3267 0 45.9908V7.42168C0 7.33732 0.0117174 7.25529 0.0328089 7.17561C0.0398393 7.14866 0.0562438 7.12406 0.0656177 7.09711C0.0831939 7.04789 0.0995983 6.99751 0.125377 6.95181C0.142953 6.92135 0.168731 6.89674 0.189823 6.86862C0.216773 6.83112 0.241379 6.79245 0.273017 6.75965C0.299967 6.73269 0.335119 6.71278 0.365584 6.68934C0.399565 6.66122 0.43003 6.63075 0.468698 6.60849H0.46987L11.7303 0.125226C12.0205 -0.0417419 12.3776 -0.0417419 12.6677 0.125226L23.9282 6.60849H23.9305C23.968 6.63192 23.9997 6.66122 24.0337 6.68817C24.0641 6.7116 24.0981 6.73269 24.1251 6.75847C24.1579 6.79245 24.1813 6.83112 24.2094 6.86862C24.2293 6.89674 24.2563 6.92135 24.2727 6.95181C24.2996 6.99868 24.3149 7.04789 24.3336 7.09711C24.343 7.12406 24.3594 7.14866 24.3664 7.17679C24.388 7.25664 24.399 7.33897 24.3992 7.42168V31.5116L33.7826 26.1087V13.7936C33.7826 13.7116 33.7943 13.6284 33.8154 13.5499C33.8236 13.5218 33.8388 13.4972 33.8482 13.4702C33.8669 13.421 33.8833 13.3706 33.9091 13.3249C33.9267 13.2945 33.9525 13.2699 33.9724 13.2417C34.0005 13.2042 34.024 13.1656 34.0568 13.1328C34.0837 13.1058 34.1177 13.0859 34.1482 13.0625C34.1833 13.0343 34.2138 13.0039 34.2513 12.9816H34.2524L45.5141 6.49835C45.8042 6.33114 46.1614 6.33114 46.4515 6.49835L57.7119 12.9816C57.7518 13.005 57.7823 13.0343 57.8174 13.0613C57.8467 13.0847 57.8807 13.1058 57.9076 13.1316C57.9404 13.1656 57.9639 13.2042 57.992 13.2417C58.0131 13.2699 58.0389 13.2945 58.0553 13.3249C58.0822 13.3706 58.0975 13.421 58.1162 13.4702C58.1267 13.4972 58.142 13.5218 58.149 13.5499ZM56.3047 26.1087V15.4177L52.3641 17.6862L46.9202 20.8206V31.5116L56.3059 26.1087H56.3047ZM45.0442 45.4483V34.7503L39.6893 37.8085L24.3981 46.5357V57.3345L45.0442 45.4483ZM1.87714 9.04455V45.4483L22.5209 57.3333V46.5369L11.7362 40.4333L11.7327 40.4309L11.728 40.4286C11.6917 40.4075 11.6612 40.377 11.6272 40.3512C11.5979 40.3278 11.564 40.309 11.5382 40.2833L11.5358 40.2798C11.5054 40.2505 11.4843 40.2141 11.4585 40.1813C11.4351 40.1497 11.4069 40.1227 11.3882 40.0899L11.387 40.0864C11.3659 40.0513 11.353 40.0091 11.3378 39.9692C11.3226 39.9341 11.3027 39.9013 11.2933 39.8638V39.8626C11.2816 39.8181 11.2792 39.7712 11.2745 39.7255C11.2698 39.6904 11.2605 39.6552 11.2605 39.6201V39.6177V14.4475L5.81771 11.3119L1.87714 9.04572V9.04455ZM12.2002 2.02111L2.81805 7.42168L12.1979 12.8223L21.5789 7.42051L12.1979 2.02111H12.2002ZM17.0794 35.7252L22.5221 32.5919V9.04455L18.5815 11.313L13.1376 14.4475V37.9949L17.0794 35.7252ZM45.9828 8.39423L36.6018 13.7948L45.9828 19.1954L55.3626 13.7936L45.9828 8.39423ZM45.0442 20.8206L39.6003 17.6862L35.6597 15.4177V26.1087L41.1025 29.2419L45.0442 31.5116V20.8206ZM23.4583 44.9128L37.2181 37.0575L44.0963 33.1321L34.7223 27.7351L23.9294 33.9488L14.0926 39.6119L23.4583 44.9128Z" fill="#FF2D20"/>
</svg>
