<svg width="19" height="42" viewBox="0 0 19 42" fill="none" xmlns="http://www.w3.org/2000/svg">
<path d="M10.2694 41.7355L9.16115 41.3567C9.16115 41.3567 9.2965 35.7065 7.26857 35.3011C5.9171 33.7328 7.48536 -31.2066 12.3516 35.0846C12.3516 35.0846 10.6752 35.9225 10.3778 37.3557C10.0532 38.7616 10.2694 41.7355 10.2694 41.7355Z" fill="#A6A385"/>
<path d="M10.8645 36.2743C10.8645 36.2743 20.5705 29.8938 18.2991 16.619C16.1095 6.96777 10.9456 3.80459 10.3778 2.58789C9.75615 1.72275 9.16113 0.208984 9.16113 0.208984L9.56689 27.0549C9.56689 27.0821 8.72842 35.2735 10.8645 36.2743Z" fill="#499D4A"/>
<path d="M8.59367 36.6256C8.59367 36.6256 -0.517663 30.4073 0.0231575 19.4582C0.536732 8.50879 6.9712 3.12871 8.21486 2.15547C9.02609 1.29033 9.05304 0.965723 9.10724 0.100586C9.67501 1.31729 9.56691 18.2957 9.64777 20.2961C9.89093 28.0012 9.21535 35.166 8.59367 36.6256Z" fill="#58AA50"/>
</svg>
