<svg width="57" height="39" viewBox="0 0 57 39" fill="none" xmlns="http://www.w3.org/2000/svg">
<path d="M54.4144 17.48C54.2606 17.4687 54.0825 17.4612 53.9025 17.4612C52.995 17.4612 52.1269 17.63 51.3281 17.9375L51.3769 17.9206C51.1425 18.0144 50.7675 18.0144 50.7356 18.3125C50.865 18.4362 50.8838 18.6406 50.9925 18.8131C51.2119 19.1844 51.4819 19.4994 51.7969 19.7619L51.8025 19.7675C52.1306 20.0244 52.4588 20.2737 52.8038 20.4931C53.4131 20.8681 54.105 21.0912 54.7013 21.4681C55.0406 21.6875 55.3875 21.9669 55.7325 22.2012C55.9031 22.3175 56.0138 22.5294 56.2331 22.6044V22.5575C56.1263 22.4169 56.0925 22.2125 55.9875 22.0569C55.83 21.8994 55.6744 21.7587 55.5188 21.605C55.0538 20.9956 54.5156 20.4744 53.9119 20.0394L53.8894 20.0244C53.3888 19.6831 52.2919 19.205 52.0856 18.6294L52.0556 18.5956C52.4644 18.5375 52.8281 18.4512 53.1788 18.335L53.1338 18.3481C53.6663 18.2075 54.1538 18.2375 54.7031 18.1006C54.9506 18.0369 55.2019 17.96 55.4531 17.8812V17.7406C55.1719 17.4594 54.9619 17.0769 54.6713 16.8144C53.9044 16.1394 53.0587 15.5056 52.1681 14.9356L52.0838 14.885C51.5925 14.5719 50.9681 14.3694 50.4506 14.1031C50.2631 14.0094 49.95 13.9625 49.8413 13.805C49.5975 13.4581 49.3819 13.0606 49.2113 12.6406L49.1963 12.5994C48.7363 11.7069 48.3088 10.7987 47.9138 9.875C47.6438 9.15687 47.3756 8.56812 47.0738 7.99812L47.1169 8.08625C45.6431 5.61312 43.59 3.62562 41.1394 2.27L41.0588 2.22875C40.4794 1.94187 39.8063 1.71875 39.0994 1.59312L39.0525 1.58562C38.6606 1.56687 38.2706 1.53875 37.8806 1.52187C37.6069 1.34562 37.3706 1.16562 37.1494 0.966871L37.155 0.972496C36.2644 0.409996 33.96 -0.808754 33.3038 0.803746C32.8819 1.82 33.93 2.82312 34.2919 3.33875C34.5806 3.68187 34.8431 4.06625 35.07 4.47312L35.0888 4.51062C35.1994 4.7825 35.2294 5.06187 35.34 5.345C35.6119 6.1925 35.8875 6.88812 36.2006 7.56125L36.1519 7.445C36.3375 7.81812 36.5306 8.135 36.7463 8.435L36.7313 8.4125C36.8569 8.58312 37.0725 8.66375 37.1231 8.945C36.9619 9.28437 36.8363 9.67812 36.7669 10.0887L36.7631 10.115C36.5606 10.7375 36.4425 11.4556 36.4425 12.2C36.4425 13.3644 36.7294 14.4612 37.2356 15.425L37.2169 15.3875C37.4681 15.7756 38.0644 16.6381 38.8631 16.3081C39.5663 16.0269 39.4106 15.1362 39.6131 14.3525C39.66 14.165 39.63 14.0412 39.7256 13.9137V13.9494C39.945 14.39 40.1663 14.81 40.3669 15.2506C40.9331 16.0662 41.6063 16.76 42.375 17.3319L42.3994 17.3487C42.7744 17.63 43.0725 18.1175 43.5413 18.29V18.2431H43.5056C43.3988 18.1269 43.2806 18.0237 43.1512 17.9356L43.1438 17.9319C42.8531 17.6469 42.5831 17.3394 42.3394 17.015L42.3244 16.9944C41.7131 16.1694 41.1319 15.2356 40.6275 14.255L40.5731 14.1406C40.3162 13.6494 40.1006 13.1187 39.8944 12.6331C39.8006 12.4456 39.8006 12.1644 39.6431 12.0706C39.3656 12.3819 39.1163 12.7287 38.9081 13.1019L38.8931 13.1319C38.6531 13.8312 38.4956 14.6394 38.4544 15.4775V15.4981C38.3906 15.515 38.4225 15.4981 38.3906 15.5319C37.89 15.41 37.7175 14.8906 37.53 14.4537C37.275 13.7675 37.1269 12.9725 37.1269 12.1456C37.1269 11.4781 37.2225 10.8331 37.4025 10.2237L37.3913 10.2725C37.5019 9.94437 37.9706 8.90937 37.7831 8.59437C37.6856 8.29625 37.3763 8.12562 37.2038 7.88375C36.9994 7.595 36.8119 7.26687 36.6563 6.92L36.6413 6.8825C36.2663 6.00687 36.0788 5.03562 35.6719 4.16C35.4263 3.7025 35.1675 3.30875 34.8769 2.94125L34.89 2.95812C34.5806 2.6 34.2956 2.20062 34.0481 1.77687L34.0275 1.73937C33.9506 1.56875 33.84 1.28562 33.9638 1.09812C33.9863 0.989371 34.0725 0.904996 34.1831 0.888121C34.3894 0.719371 34.9706 0.938746 35.1731 1.0325C35.7675 1.2575 36.2794 1.52187 36.7538 1.83312L36.7238 1.81437C36.9431 1.96812 37.1813 2.26625 37.4625 2.34312H37.7906C38.2913 2.45375 38.8575 2.37687 39.3263 2.51375C40.1869 2.80437 40.9313 3.16812 41.6194 3.61437L41.58 3.59C43.65 4.92687 45.3075 6.73437 46.4288 8.87L46.4663 8.94687C46.6538 9.30687 46.7363 9.63875 46.9069 10.0137C47.235 10.7862 47.64 11.5681 47.9738 12.3144C48.2906 13.1169 48.6656 13.8106 49.1119 14.45L49.0894 14.4162C49.3238 14.7444 50.265 14.915 50.6869 15.0856C51.1313 15.2412 51.4875 15.3894 51.8325 15.5562L51.7631 15.5262C52.3013 15.8544 52.8263 16.2294 53.3325 16.5894C53.5894 16.7675 54.3713 17.1594 54.4181 17.4744L54.4144 17.48ZM32.4319 31.1919C32.4319 31.22 32.4338 31.2519 32.4338 31.2837C32.4338 32.33 31.9669 33.2656 31.2281 33.8956L31.2225 33.8994C30.4125 34.5594 29.3681 34.9606 28.23 34.9606C28.1419 34.9606 28.0537 34.9587 27.9675 34.9531H27.9787C26.5931 34.9344 25.3181 34.4844 24.2738 33.7325L24.2925 33.7456L24.8475 32.63C25.6519 33.08 26.6081 33.3594 27.6244 33.3987H27.6356C27.6863 33.4025 27.7444 33.4044 27.8044 33.4044C28.4269 33.4044 29.0063 33.2094 29.4806 32.8775L29.4712 32.8831C29.9006 32.5569 30.1744 32.0469 30.1744 31.4731C30.1744 31.4619 30.1744 31.4525 30.1744 31.4412V31.4431C30.1744 30.6706 29.6362 30.0144 28.6556 29.4631C27.7462 28.9644 25.9312 27.9237 25.9312 27.9237C25.035 27.3687 24.4481 26.3919 24.4481 25.2781C24.4481 25.2387 24.4481 25.1994 24.45 25.16V25.1656C24.4481 25.13 24.4481 25.0887 24.4481 25.0475C24.4481 24.0819 24.8738 23.2156 25.5469 22.6269L25.5506 22.6231C26.2669 22.0156 27.2025 21.6462 28.2244 21.6462C28.29 21.6462 28.3537 21.6481 28.4175 21.65H28.4081C28.425 21.65 28.4456 21.65 28.4663 21.65C29.6644 21.65 30.78 22.0081 31.71 22.625L31.6875 22.6119L31.1888 23.7275C30.4556 23.3975 29.6006 23.1987 28.7006 23.1894H28.6969C28.6519 23.1856 28.6013 23.1837 28.5488 23.1837C28.0238 23.1837 27.54 23.3675 27.1613 23.675L27.165 23.6712C26.8106 23.9656 26.5856 24.4062 26.5837 24.8994C26.5837 25.6681 27.1312 26.3281 28.1437 26.8906C29.0644 27.395 30.9244 28.46 30.9244 28.46C31.8394 28.9981 32.445 29.9769 32.445 31.0981C32.445 31.1319 32.445 31.1675 32.4431 31.2012V31.1956L32.4319 31.1919ZM36.3169 32.1875C35.805 31.1656 35.5069 29.9619 35.5069 28.6887C35.5069 28.4881 35.5144 28.2894 35.5294 28.0944L35.5275 28.1206C35.5275 24.8569 36.5194 23.2244 38.5031 23.2231C38.5519 23.2194 38.61 23.2175 38.67 23.2175C39.5606 23.2175 40.3425 23.6825 40.7869 24.3837L40.7925 24.3931C41.3006 25.4094 41.5988 26.6094 41.5988 27.8769C41.5988 28.0719 41.5913 28.265 41.5781 28.4562L41.58 28.43C41.58 31.72 40.5881 33.3662 38.6044 33.3687C38.5538 33.3725 38.4956 33.3744 38.4375 33.3744C37.5469 33.3744 36.7631 32.9094 36.3188 32.2081L36.3131 32.1987L36.3169 32.1875ZM44.0306 35.0975L41.6494 33.9256C41.8669 33.7437 42.0619 33.5525 42.2419 33.3462L42.2475 33.3406C43.2094 32.0431 43.7869 30.41 43.7869 28.6437C43.7869 28.4394 43.7794 28.2369 43.7644 28.0362L43.7663 28.0625C43.7663 23.775 42.0831 21.63 38.7169 21.6275C38.6419 21.6237 38.5538 21.6219 38.4656 21.6219C37.0275 21.6219 35.7356 22.2537 34.8563 23.2569L34.8525 23.2625C33.8944 24.56 33.3188 26.1912 33.3188 27.9575C33.3188 28.1562 33.3263 28.3531 33.3413 28.5481L33.3394 28.5219C33.3225 28.7112 33.3131 28.9325 33.3131 29.1556C33.3131 30.7944 33.8269 32.3131 34.7006 33.56L34.6838 33.5356C35.5256 34.4319 36.72 34.9906 38.0419 34.9906C38.1656 34.9906 38.2875 34.985 38.4075 34.9756L38.3906 34.9775C38.4075 34.9775 38.43 34.9775 38.4506 34.9775C39.0337 34.9775 39.5981 34.8931 40.1325 34.7375L40.0912 34.7487L43.1963 36.5581L44.04 35.1012L44.0306 35.0975ZM51.8081 34.7806H45.645V21.8244H47.7188V33.1887H51.8081V34.7806ZM22.9312 25.2219C22.3931 29.1294 21.1612 32.6562 19.3594 35.8156L19.4344 35.6712C18.7125 37.0606 17.3475 38.0281 15.7444 38.1837L15.7256 38.1856C15.24 38.1594 14.7881 38.0431 14.3775 37.8537L14.4 37.8631V36.7062C14.6569 36.7456 14.9531 36.7681 15.255 36.7681C15.2719 36.7681 15.2887 36.7681 15.3075 36.7681C15.3375 36.77 15.3694 36.77 15.4031 36.77C15.945 36.77 16.4419 36.5731 16.8244 36.245L16.8206 36.2469C17.2331 35.9075 17.4975 35.4012 17.5125 34.8312C17.4131 34.01 17.2237 33.26 16.9519 32.5531L16.9744 32.6169L14.5988 25.2219H16.7306L18.435 30.7512C18.7387 31.5312 18.915 32.435 18.915 33.3781C18.915 33.38 18.915 33.3819 18.915 33.3819C19.8188 31.0156 20.505 28.2556 20.8537 25.3925L20.8706 25.22L22.9312 25.2219ZM13.5188 34.7806H11.3475C11.2863 31.3294 11.0756 27.885 10.7156 24.4475H10.6969L7.39312 34.7806H5.74125L2.46 24.4475H2.4375C2.18125 27.8862 2.02875 31.3306 1.98 34.7806H0C0.12875 30.1744 0.44875 25.855 0.96 21.8225H3.65438L6.78188 31.3456H6.80062L9.95625 21.8225H12.5212C13.0887 26.5437 13.4231 30.8631 13.5244 34.7806H13.5188ZM38.4375 3.8675C38.4337 3.8675 38.4281 3.8675 38.4225 3.8675C38.1994 3.8675 37.9838 3.89562 37.7775 3.94812L37.7963 3.94437V3.97437H37.8281C37.9894 4.21437 38.1544 4.4225 38.3325 4.6175L38.3288 4.61375C38.4544 4.865 38.5631 5.11437 38.6888 5.36375L38.7206 5.32812C38.925 5.16687 39.0544 4.91937 39.0544 4.64187C39.0544 4.60812 39.0525 4.57625 39.0488 4.5425V4.54625C38.955 4.43562 38.9419 4.32687 38.8613 4.21812C38.7675 4.06062 38.5669 3.98375 38.4394 3.86L38.4375 3.8675Z" fill="black"/>
</svg>
