<svg width="64" height="64" viewBox="0 0 64 64" fill="none" xmlns="http://www.w3.org/2000/svg">
<path d="M29.9043 0.0172226C29.7667 0.029733 29.3285 0.0735193 28.9344 0.104795C19.8444 0.924224 11.3298 5.82829 5.93704 13.3658C2.93411 17.5568 1.01349 22.3107 0.287781 27.3461C0.0312805 29.104 0 29.6231 0 32.0062C0 34.3896 0.0312805 34.9087 0.287781 36.6663C2.02698 48.6827 10.5791 58.7786 22.1779 62.5191C24.2549 63.1883 26.4446 63.6451 28.9344 63.9202C29.9043 64.0266 34.0957 64.0266 35.0656 63.9202C39.3635 63.4448 43.0045 62.3815 46.5955 60.5487C47.1461 60.2672 47.2523 60.1922 47.1773 60.1296C47.1272 60.092 44.7813 56.9458 41.9659 53.1426L36.8485 46.2305L30.436 36.7415C26.9075 31.5247 24.0047 27.2587 23.9797 27.2587C23.9546 27.2523 23.9296 31.4684 23.9171 36.6162C23.8983 45.6301 23.8921 45.993 23.7795 46.2055C23.6168 46.5121 23.4917 46.6372 23.2289 46.7747C23.0287 46.875 22.8536 46.8936 21.9089 46.8936H20.8266L20.5388 46.7123C20.3511 46.5934 20.2135 46.4369 20.1197 46.2556L19.9883 45.974L20.0008 33.4324L20.0195 20.8845L20.2135 20.6406C20.3136 20.5092 20.5263 20.3403 20.6765 20.259C20.9329 20.1339 21.033 20.1214 22.1153 20.1214C23.3916 20.1214 23.6043 20.1714 23.9359 20.5342C24.0297 20.6343 27.5019 25.8637 31.656 32.1627C35.8099 38.4616 41.4904 47.0624 44.2808 51.2847L49.3483 58.9599L49.6048 58.7911C51.8757 57.3148 54.2781 55.213 56.1797 53.0237C60.2275 48.3761 62.8363 42.7089 63.7123 36.6663C63.9688 34.9087 64 34.3896 64 32.0062C64 29.6231 63.9688 29.104 63.7123 27.3461C61.9731 15.3299 53.4208 5.23406 41.8221 1.49345C39.7763 0.830398 37.5992 0.373769 35.1595 0.0985402C34.5587 0.0359883 30.4235 -0.0328189 29.9043 0.0172226ZM43.0045 19.3708C43.3048 19.5209 43.5488 19.8086 43.6363 20.1089C43.6864 20.2715 43.6989 23.7494 43.6864 31.5871L43.6677 42.834L41.6845 39.7939L39.6949 36.7541V28.5785C39.6949 23.2928 39.72 20.3216 39.7576 20.1777C39.8576 19.8274 40.0765 19.5522 40.3768 19.3896C40.6333 19.2582 40.7272 19.2457 41.7096 19.2457C42.6355 19.2457 42.7981 19.2582 43.0045 19.3708Z" fill="black"/>
</svg>
