<svg width="64" height="72" viewBox="0 0 64 72" fill="none" xmlns="http://www.w3.org/2000/svg">
<path d="M32 72C31.0078 72 30.0818 71.7354 29.2219 71.2724L20.4244 66.0469C19.1015 65.3192 19.763 65.0547 20.1599 64.9224C21.9458 64.3271 22.2765 64.1948 24.1286 63.1364C24.3271 63.0041 24.5916 63.0703 24.7901 63.2026L31.537 67.2375C31.8016 67.3698 32.1323 67.3698 32.3307 67.2375L58.723 51.9577C58.9876 51.8254 59.1199 51.5609 59.1199 51.2301V20.7368C59.1199 20.4061 58.9876 20.1415 58.723 20.0092L32.3307 4.79559C32.0662 4.6633 31.7354 4.6633 31.537 4.79559L5.1447 20.0092C4.88012 20.1415 4.74782 20.4722 4.74782 20.7368V51.2301C4.74782 51.4947 4.88012 51.8254 5.1447 51.9577L12.3546 56.1249C16.2572 58.1093 18.7046 55.7942 18.7046 53.4791V23.3826C18.7046 22.9858 19.0354 22.5889 19.4984 22.5889H22.8718C23.2687 22.5889 23.6656 22.9196 23.6656 23.3826V53.4791C23.6656 58.7046 20.8213 61.7474 15.8604 61.7474C14.339 61.7474 13.1484 61.7474 9.77492 60.0937L2.82959 56.1249C1.10979 55.1328 0.0514526 53.2807 0.0514526 51.2963V20.8029C0.0514526 18.8186 1.10979 16.9665 2.82959 15.9743L29.2219 0.694533C30.8755 -0.231511 33.1245 -0.231511 34.7781 0.694533L61.1704 15.9743C62.8902 16.9665 63.9486 18.8186 63.9486 20.8029V51.2963C63.9486 53.2807 62.8902 55.1328 61.1704 56.1249L34.7781 71.4047C33.9182 71.8016 32.9261 72 32 72ZM40.136 51.0317C28.5604 51.0317 26.1792 45.74 26.1792 41.2421C26.1792 40.8452 26.5099 40.4483 26.9729 40.4483H30.4125C30.8094 40.4483 31.1401 40.7129 31.1401 41.1098C31.6693 44.6155 33.1906 46.3353 40.2021 46.3353C45.7584 46.3353 48.1396 45.0785 48.1396 42.102C48.1396 40.3822 47.4782 39.1254 38.8131 38.2655C31.6031 37.5379 27.1052 35.9504 27.1052 30.1957C27.1052 24.8379 31.6031 21.6628 39.1438 21.6628C47.6105 21.6628 51.7777 24.5733 52.3069 30.9233C52.3069 31.1217 52.2407 31.3202 52.1084 31.5186C51.9761 31.6509 51.7777 31.7832 51.5792 31.7832H48.1396C47.8089 31.7832 47.4782 31.5186 47.412 31.1879C46.6183 27.5498 44.5678 26.3592 39.1438 26.3592C33.0583 26.3592 32.3307 28.4759 32.3307 30.0634C32.3307 31.9816 33.1906 32.5769 41.3927 33.6353C49.5287 34.6936 53.3652 36.215 53.3652 41.9035C53.299 47.7244 48.5365 51.0317 40.136 51.0317Z" fill="#539E43"/>
</svg>
