<svg width="64" height="56" viewBox="0 0 64 56" fill="none" xmlns="http://www.w3.org/2000/svg">
<path d="M37.715 27.6819C37.715 24.6219 35.1565 22.1408 32 22.1408C28.8439 22.1408 26.285 24.6219 26.285 27.6819C26.285 30.7424 28.8439 33.2233 32 33.2233C35.1565 33.2233 37.715 30.7424 37.715 27.6819Z" fill="#53C1DE"/>
<path fill-rule="evenodd" clip-rule="evenodd" d="M50.5609 17.3946C51.7677 12.6395 53.2847 3.82182 47.9369 0.832339C42.614 -2.14411 35.6873 3.55931 32.0297 6.98278C28.3827 3.59343 21.2614 -2.08561 15.9181 0.913363C10.5974 3.89979 12.2382 12.5713 13.4718 17.3562C8.50839 18.723 0 21.667 0 27.6819C0 33.6798 8.49954 36.8828 13.4336 38.2483C12.1954 43.0596 10.6367 51.6073 15.9643 54.5871C21.3276 57.5855 28.4267 52.0416 32.1182 48.5807C35.7993 52.0243 42.6594 57.6045 47.9834 54.6163C53.324 51.6188 51.933 42.9192 50.6993 38.1067C55.4822 36.7381 64 33.6049 64 27.6819C64 21.7248 55.446 18.7569 50.5609 17.3946ZM49.9546 35.5563C49.1445 33.0701 48.0512 30.4262 46.7138 27.6951C47.9904 25.0285 49.0413 22.4188 49.8287 19.9486C53.4099 20.9553 61.2661 23.2561 61.2661 27.6819C61.2661 32.1493 53.7272 34.4719 49.9546 35.5563ZM46.6133 52.3221C42.6411 54.5515 36.7405 49.2151 34.022 46.6793C35.8255 44.7667 37.6277 42.5434 39.3867 40.0745C42.4809 39.8084 45.4037 39.3732 48.0546 38.7791C48.9229 42.1833 50.6031 50.0828 46.6133 52.3221ZM17.3304 52.2903C13.3577 50.0693 15.1735 42.4418 16.0844 38.8977C18.7058 39.46 21.6077 39.8645 24.7091 40.1084C26.4796 42.5242 28.3341 44.7447 30.2029 46.6895C27.894 48.855 21.3216 54.5216 17.3304 52.2903ZM2.73385 27.6819C2.73385 23.1979 10.5431 20.9137 14.206 19.9095C15.007 22.4352 16.0575 25.0761 17.3253 27.7466C16.0411 30.4567 14.9755 33.1394 14.1671 35.6949C10.6745 34.7255 2.73385 32.1687 2.73385 27.6819ZM17.2879 3.20755C21.2768 0.968872 27.466 6.42097 30.1139 8.87494C28.2547 10.8107 26.4173 13.0146 24.662 15.4165C21.6521 15.687 18.7707 16.1214 16.1218 16.7034C15.128 12.8442 13.3033 5.44382 17.2879 3.20755ZM41.3425 18.2978C43.3845 18.5476 45.341 18.88 47.178 19.2866C46.6266 21.0005 45.9392 22.7927 45.1296 24.63C43.9561 22.471 42.6963 20.3554 41.3425 18.2978ZM32.0305 10.7693C33.2915 12.0938 34.5545 13.5729 35.7969 15.1776C33.2768 15.062 30.7526 15.0615 28.2325 15.1759C29.4761 13.5861 30.7499 12.1092 32.0305 10.7693ZM18.8939 24.6281C18.0977 22.7972 17.4165 20.9971 16.8602 19.2587C18.6863 18.8625 20.6336 18.5387 22.6624 18.2929C21.3047 20.346 20.0471 22.4608 18.8939 24.6281ZM22.7206 37.2602C20.6249 37.0334 18.648 36.726 16.8225 36.3407C17.3876 34.5717 18.0838 32.7328 18.897 30.8625C20.0661 33.0524 21.3429 35.1876 22.7206 37.2602ZM32.1062 44.7819C30.8105 43.4261 29.5179 41.9266 28.2556 40.3138C30.79 40.4102 33.3293 40.4105 35.8635 40.3008C34.6172 41.943 33.3587 43.4447 32.1062 44.7819ZM45.1556 30.7674C46.0111 32.6579 46.7322 34.4868 47.305 36.2259C45.4492 36.6366 43.4458 36.9673 41.3348 37.2128C42.6987 35.1162 43.9785 32.9677 45.1556 30.7674ZM37.8609 37.5341C33.9842 37.8027 30.0834 37.7997 26.2054 37.5561C24.0019 34.4352 22.0403 31.1531 20.3471 27.7457C22.0322 24.3454 23.9795 21.0697 26.1726 17.9537C30.0533 17.6693 33.958 17.6685 37.8387 17.9554C40.013 21.0711 41.9573 24.3383 43.6815 27.7079C41.9778 31.1066 40.0203 34.3889 37.8609 37.5341ZM46.5713 3.12874C50.5613 5.36008 48.7853 13.2848 47.9136 16.7309C45.2585 16.1367 42.375 15.6947 39.3564 15.4199C37.5977 12.9921 35.7756 10.7844 33.9465 8.87358C36.6283 6.36674 42.6199 0.919229 46.5713 3.12874Z" fill="#53C1DE"/>
</svg>
