<svg width="64" height="64" viewBox="0 0 64 64" fill="none" xmlns="http://www.w3.org/2000/svg">
<path d="M0 7C0 3.134 3.13401 0 7 0H57C60.866 0 64 3.13401 64 7V15C64 16.6568 62.6568 18 61 18C59.3432 18 58 16.6568 58 15V7C58 6.44772 57.5524 6 57 6H7C6.44772 6 6 6.44772 6 7V57C6 57.5524 6.44772 58 7 58H61C62.6568 58 64 59.3432 64 61C64 62.6568 62.6568 64 61 64H7C3.134 64 0 60.866 0 57V7ZM19 26C19 24.3432 20.3432 23 22 23H37C38.6568 23 40 24.3432 40 26C40 27.6568 38.6568 29 37 29H33V50C33 51.6568 31.6568 53 30 53C28.3432 53 27 51.6568 27 50V29H22C20.3432 29 19 27.6568 19 26ZM45.1028 26.3204C46.7776 24.3266 49.4028 23 53 23C56.3396 23 58.8592 24.1427 60.5576 25.9392C61.6956 27.1433 61.642 29.0421 60.438 30.1802C59.234 31.3183 57.3352 31.2648 56.1972 30.0608C55.7576 29.5959 54.8816 29 53 29C50.9972 29 50.1224 29.6734 49.6972 30.1796C49.1736 30.8026 49 31.584 49 32C49 32.416 49.1736 33.1974 49.6972 33.8204C50.1224 34.3266 50.9972 35 53 35C53.3028 35 53.5952 35.0448 53.8704 35.1283C56.5228 35.5058 58.5276 36.69 59.8972 38.3204C61.4736 40.1972 62 42.416 62 44C62 45.584 61.4736 47.8028 59.8972 49.6796C58.2224 51.6736 55.5972 53 52 53C48.6604 53 46.1408 51.8572 44.4424 50.0608C43.3044 48.8568 43.358 46.958 44.562 45.8196C45.766 44.6816 47.6648 44.7352 48.8028 45.9392C49.2424 46.404 50.1184 47 52 47C54.0028 47 54.8776 46.3264 55.3028 45.8204C55.8264 45.1972 56 44.416 56 44C56 43.584 55.8264 42.8028 55.3028 42.1796C54.8776 41.6736 54.0028 41 52 41C51.6972 41 51.4048 40.9552 51.1296 40.8716C48.4772 40.494 46.4724 39.31 45.1028 37.6796C43.5264 35.8026 43 33.584 43 32C43 30.416 43.5264 28.1974 45.1028 26.3204Z" fill="#007ACC"/>
</svg>
